<svg xmlns="http://www.w3.org/2000/svg" width="169" height="35" viewBox="0 0 169 35">
  <g fill="none" fill-rule="evenodd" transform="translate(0 1)">
    <path stroke="#1D1D1B" stroke-width=".988" d="M0.494,32.6607 L168.395,32.6607 L168.395,0.4937 L0.494,0.4937 L0.494,32.6607 Z M96.494,0.4942 L96.494,32.6612"/>
    <path fill="#1D1D1B" d="M168.395 32.6607L96.494 32.6607 96.494.4937 168.395.4937 168.395 32.6607zM33.7214 9.4209C36.5914 9.4209 38.3834 10.6109 39.0974 12.9909L38.5304 13.2639C37.8584 11.0519 36.2624 9.9459 33.7424 9.9459 32.6224 9.9459 31.6424 10.2149 30.8024 10.7549 29.9624 11.2939 29.3084 12.0599 28.8384 13.0539 28.3704 14.0479 28.1354 15.2169 28.1354 16.5609 28.1354 17.9049 28.3704 19.0739 28.8384 20.0679 29.3084 21.0619 29.9624 21.8289 30.8024 22.3669 31.6424 22.9059 32.6224 23.1759 33.7424 23.1759 34.9884 23.1759 36.0414 22.8819 36.9034 22.2939 37.7644 21.7059 38.3484 20.8729 38.6564 19.7949L39.2444 20.0049C38.8804 21.1809 38.2154 22.0909 37.2494 22.7349 36.2834 23.3789 35.1144 23.7009 33.7424 23.7009 32.5104 23.7009 31.4254 23.4099 30.4874 22.8289 29.5494 22.2489 28.8214 21.4189 28.3034 20.3409 27.7854 19.2629 27.5264 18.0029 27.5264 16.5609 27.5264 15.1189 27.7814 13.8589 28.2924 12.7809 28.8044 11.7029 29.5284 10.8739 30.4664 10.2919 31.4044 9.7119 32.4894 9.4209 33.7214 9.4209zM24.6497 9.6309L24.6497 10.1559 15.9557 10.1559 15.9557 16.1619 22.8857 16.1619 22.8857 16.6869 15.9557 16.6869 15.9557 22.9659 24.9857 22.9659 24.9857 23.4909 15.3677 23.4909 15.3677 9.6309 24.6497 9.6309zM48.3167 9.6307C49.6887 9.6307 50.7697 9.9707 51.5607 10.6497 52.3517 11.3287 52.7477 12.2637 52.7477 13.4527 52.7477 14.5027 52.4437 15.3567 51.8347 16.0147 51.2247 16.6727 50.3747 17.0787 49.2827 17.2327L53.3987 23.4907 52.7267 23.4907 48.6107 17.2957 43.8437 17.2957 43.8437 23.4907 43.2557 23.4907 43.2557 9.6307 48.3167 9.6307zM61.8611 9.6308L67.5101 23.4908 66.9011 23.4908 64.9691 18.7868 58.0811 18.7868 56.1491 23.4908 55.5401 23.4908 61.1891 9.6308 61.8611 9.6308zM71.752 9.6308L80.236 21.6848 80.95 22.8608 80.929 21.4748 80.929 9.6308 81.496 9.6308 81.496 23.4908 80.719 23.4908 72.256 11.4368 71.542 10.2398 71.521 10.2398 71.563 11.6468 71.563 23.4908 70.996 23.4908 70.996 9.6308 71.752 9.6308zM61.5251 10.2398L61.1051 11.3528 58.2911 18.2408 64.7381 18.2408 61.9451 11.3738 61.5251 10.2398zM48.3167 10.1557L43.8437 10.1557 43.8437 16.7497 48.3167 16.7497C49.5347 16.7497 50.4797 16.4627 51.1517 15.8887 51.8237 15.3147 52.1597 14.5027 52.1597 13.4527 52.1597 12.4167 51.8237 11.6087 51.1517 11.0277 50.4797 10.4467 49.5347 10.1557 48.3167 10.1557z"/>
    <path fill="#FEFEFE" d="M129.5644,9.4214 C130.8524,9.4214 131.9764,9.7114 132.9354,10.2924 C133.8944,10.8734 134.6284,11.6994 135.1404,12.7704 C135.6514,13.8414 135.9074,15.1054 135.9074,16.5604 C135.9074,18.0174 135.6514,19.2804 135.1404,20.3514 C134.6284,21.4224 133.8944,22.2484 132.9354,22.8294 C131.9764,23.4104 130.8524,23.7004 129.5644,23.7004 C128.2764,23.7004 127.1574,23.4104 126.2054,22.8294 C125.2524,22.2484 124.5174,21.4224 123.9994,20.3514 C123.4814,19.2804 123.2224,18.0174 123.2224,16.5604 C123.2224,15.1054 123.4814,13.8414 123.9994,12.7704 C124.5174,11.6994 125.2524,10.8734 126.2054,10.2924 C127.1574,9.7114 128.2764,9.4214 129.5644,9.4214 Z M109.0898,9.6308 L117.5738,21.6848 L118.2878,22.8608 L118.2668,21.4748 L118.2668,9.6308 L118.8338,9.6308 L118.8338,23.4908 L118.0568,23.4908 L109.5938,11.4368 L108.8798,10.2398 L108.8588,10.2398 L108.9008,11.6468 L108.9008,23.4908 L108.3338,23.4908 L108.3338,9.6308 L109.0898,9.6308 Z M140.883,9.6307 L140.883,23.4907 L140.295,23.4907 L140.295,9.6307 L140.883,9.6307 Z M151.2137,9.6307 C152.5857,9.6307 153.6677,9.9707 154.4587,10.6497 C155.2487,11.3287 155.6457,12.2637 155.6457,13.4527 C155.6457,14.5027 155.3407,15.3567 154.7317,16.0147 C154.1227,16.6727 153.2727,17.0787 152.1807,17.2327 L156.2957,23.4907 L155.6237,23.4907 L151.5077,17.2957 L146.7407,17.2957 L146.7407,23.4907 L146.1527,23.4907 L146.1527,9.6307 L151.2137,9.6307 Z M129.5644,9.9454 C128.4024,9.9454 127.3874,10.2154 126.5194,10.7544 C125.6514,11.2934 124.9874,12.0604 124.5244,13.0534 C124.0624,14.0474 123.8314,15.2164 123.8314,16.5604 C123.8314,17.9044 124.0624,19.0734 124.5244,20.0674 C124.9874,21.0624 125.6514,21.8284 126.5194,22.3674 C127.3874,22.9064 128.4024,23.1754 129.5644,23.1754 C130.7264,23.1754 131.7414,22.9064 132.6104,22.3674 C133.4774,21.8284 134.1424,21.0624 134.6044,20.0674 C135.0664,19.0734 135.2974,17.9044 135.2974,16.5604 C135.2974,15.2164 135.0664,14.0474 134.6044,13.0534 C134.1424,12.0604 133.4774,11.2934 132.6104,10.7544 C131.7414,10.2154 130.7264,9.9454 129.5644,9.9454 Z M151.2137,10.1557 L146.7407,10.1557 L146.7407,16.7497 L151.2137,16.7497 C152.4327,16.7497 153.3767,16.4627 154.0487,15.8887 C154.7217,15.3147 155.0577,14.5027 155.0577,13.4527 C155.0577,12.4167 154.7217,11.6087 154.0487,11.0277 C153.3767,10.4467 152.4327,10.1557 151.2137,10.1557 Z"/>
  </g>
</svg>
